# xmcd
#
# Track frame offsets: 
#        150
#        12825
#        25352
#        38156
#        53397
#        68838
#        82774
#        95841
#        110403
#        122509
#        136622
#        150180
#        163229
#        176115
#        190042
#        199916
#        215244
#        229190
#        243550
#        256386
#        270533
#        284448
#        297226
#        310518
#
# Disc length: 4314 seconds
#
# Revision: 1
# Processed by: cddbd v1.5.2PL0 Copyright (c) Steve Scherf et al.
# Submitted via: ExactAudioCopyFreeDBPlugin 1.0
#
DISCID=4c10d818
DTITLE=Blind Lemon Jefferson - The Rough Guide to Blues Legends [CD 2)
DYEAR=2013
DGENRE=Blues
TTITLE0=Big Bill Broonzy - Long Tall Mama
TTITLE1=Blind Blake - He's in the Jailhouse Now
TTITLE2=Skip James - Hard Time Killin' Floor
TTITLE3=Blind Willie Johnson - Mother's Children Have a Hard Time
TTITLE4=Tommy Johnson - Cool Drink of Water Blues
TTITLE5=Frank Stokes - I Got Mine
TTITLE6=Robert Wilkins - That's No Way to Get Along
TTITLE7=Blind Willie McTell - Southern Can is Mine
TTITLE8=Bukka White - District Attorney Blues
TTITLE9=Reverend Gary Davis - You Can Go Home
TTITLE10=Willie Brown - Future Blues
TTITLE11=Mississippi John Hurt - Nobody's Dirty Business
TTITLE12=Furry Lewis - Falling Down Blues
TTITLE13=Teddy Darby - Lawdy Lawdy Worried Blues
TTITLE14=Son House - County Farm Blues
TTITLE15=Mississippi Sheiks - The World is Going Wrong
TTITLE16=Lead Belly - Blind Lemon (My Friend Blind Lemon)
TTITLE17=Ishmon "Mississpi" Bracey - Stered Gal
TTITLE18=Robert Johnson - Preachin' Blues
TTITLE19=Charley Patton - Some of These Days I'll Be Gone (Take 2)
TTITLE20=Barbecue Bob - Atlanta Moan
TTITLE21=The Memphis Jug Band - On the Road Again
TTITLE22=Memphis Minnie - Weary Woman's Blues
TTITLE23=Sam Collins - My Road is Rough and Rocky
EXTD=
EXTT0=
EXTT1=
EXTT2=
EXTT3=
EXTT4=
EXTT5=
EXTT6=
EXTT7=
EXTT8=
EXTT9=
EXTT10=
EXTT11=
EXTT12=
EXTT13=
EXTT14=
EXTT15=
EXTT16=
EXTT17=
EXTT18=
EXTT19=
EXTT20=
EXTT21=
EXTT22=
EXTT23=
PLAYORDER=
